<mxfile host="Electron" modified="2024-02-29T14:37:22.946Z" agent="Mozilla/5.0 (Windows NT 10.0; Win64; x64) AppleWebKit/537.36 (KHTML, like Gecko) draw.io/21.6.8 Chrome/114.0.5735.289 Electron/25.5.0 Safari/537.36" etag="v0MJw13r_vmRJ3eyKylj" version="21.6.8" type="device">
  <diagram id="kgpKYQtTHZ0yAKxKKP6v" name="Page-1">
    <mxGraphModel dx="1036" dy="1714" grid="1" gridSize="10" guides="1" tooltips="1" connect="1" arrows="1" fold="1" page="1" pageScale="1" pageWidth="850" pageHeight="1100" math="0" shadow="0">
      <root>
        <mxCell id="0" />
        <mxCell id="1" parent="0" />
        <mxCell id="o-FCv32g8scxOuC1XO9P-1" style="edgeStyle=orthogonalEdgeStyle;rounded=0;orthogonalLoop=1;jettySize=auto;html=1;fontSize=12;" edge="1" parent="1" source="Fo1p0z003ygMmxx4qWx5-2" target="Fo1p0z003ygMmxx4qWx5-3">
          <mxGeometry relative="1" as="geometry" />
        </mxCell>
        <mxCell id="Fo1p0z003ygMmxx4qWx5-2" value="Начало" style="rounded=1;whiteSpace=wrap;html=1;arcSize=50;fontSize=12;" parent="1" vertex="1">
          <mxGeometry x="400" y="-160" width="120" height="40" as="geometry" />
        </mxCell>
        <mxCell id="o-FCv32g8scxOuC1XO9P-2" style="edgeStyle=orthogonalEdgeStyle;rounded=0;orthogonalLoop=1;jettySize=auto;html=1;fontSize=12;" edge="1" parent="1" source="Fo1p0z003ygMmxx4qWx5-3" target="Fo1p0z003ygMmxx4qWx5-6">
          <mxGeometry relative="1" as="geometry" />
        </mxCell>
        <mxCell id="Fo1p0z003ygMmxx4qWx5-3" value="Выбор&lt;br style=&quot;font-size: 12px;&quot;&gt;мероприятия" style="shape=parallelogram;perimeter=parallelogramPerimeter;whiteSpace=wrap;html=1;fixedSize=1;fontSize=12;" parent="1" vertex="1">
          <mxGeometry x="400" y="-80" width="120" height="40" as="geometry" />
        </mxCell>
        <mxCell id="o-FCv32g8scxOuC1XO9P-11" style="edgeStyle=orthogonalEdgeStyle;rounded=0;orthogonalLoop=1;jettySize=auto;html=1;" edge="1" parent="1" source="Fo1p0z003ygMmxx4qWx5-4" target="o-FCv32g8scxOuC1XO9P-10">
          <mxGeometry relative="1" as="geometry" />
        </mxCell>
        <mxCell id="Fo1p0z003ygMmxx4qWx5-4" value="Мероприятия" style="shape=cylinder3;whiteSpace=wrap;html=1;boundedLbl=1;backgroundOutline=1;size=5.799997965494811;fontSize=12;" parent="1" vertex="1">
          <mxGeometry x="240" y="200" width="120" height="50" as="geometry" />
        </mxCell>
        <mxCell id="o-FCv32g8scxOuC1XO9P-3" style="edgeStyle=orthogonalEdgeStyle;rounded=0;orthogonalLoop=1;jettySize=auto;html=1;fontSize=12;" edge="1" parent="1" source="Fo1p0z003ygMmxx4qWx5-6" target="Fo1p0z003ygMmxx4qWx5-9">
          <mxGeometry relative="1" as="geometry" />
        </mxCell>
        <mxCell id="Fo1p0z003ygMmxx4qWx5-6" value="Проверка наличия&lt;br style=&quot;font-size: 12px;&quot;&gt;броней" style="shape=process;whiteSpace=wrap;html=1;backgroundOutline=1;fontSize=12;" parent="1" vertex="1">
          <mxGeometry x="400" width="120" height="60" as="geometry" />
        </mxCell>
        <mxCell id="Fo1p0z003ygMmxx4qWx5-7" value="Информация по брони" style="shape=document;whiteSpace=wrap;html=1;boundedLbl=1;fontSize=12;" parent="1" vertex="1">
          <mxGeometry x="400" y="280" width="120" height="60" as="geometry" />
        </mxCell>
        <mxCell id="Fo1p0z003ygMmxx4qWx5-8" value="Конец" style="rounded=1;whiteSpace=wrap;html=1;arcSize=50;fontSize=12;" parent="1" vertex="1">
          <mxGeometry x="240" y="360" width="120" height="40" as="geometry" />
        </mxCell>
        <mxCell id="o-FCv32g8scxOuC1XO9P-4" style="edgeStyle=orthogonalEdgeStyle;rounded=0;orthogonalLoop=1;jettySize=auto;html=1;fontSize=12;" edge="1" parent="1" source="Fo1p0z003ygMmxx4qWx5-9" target="Fo1p0z003ygMmxx4qWx5-10">
          <mxGeometry relative="1" as="geometry" />
        </mxCell>
        <mxCell id="o-FCv32g8scxOuC1XO9P-5" value="Да" style="edgeLabel;html=1;align=center;verticalAlign=middle;resizable=0;points=[];fontSize=12;" vertex="1" connectable="0" parent="o-FCv32g8scxOuC1XO9P-4">
          <mxGeometry x="-0.21" y="2" relative="1" as="geometry">
            <mxPoint x="-2" y="4" as="offset" />
          </mxGeometry>
        </mxCell>
        <mxCell id="o-FCv32g8scxOuC1XO9P-8" style="edgeStyle=orthogonalEdgeStyle;rounded=0;orthogonalLoop=1;jettySize=auto;html=1;fontSize=12;" edge="1" parent="1" source="Fo1p0z003ygMmxx4qWx5-9" target="Fo1p0z003ygMmxx4qWx5-4">
          <mxGeometry relative="1" as="geometry" />
        </mxCell>
        <mxCell id="o-FCv32g8scxOuC1XO9P-9" value="Нет" style="edgeLabel;html=1;align=center;verticalAlign=middle;resizable=0;points=[];fontSize=12;" vertex="1" connectable="0" parent="o-FCv32g8scxOuC1XO9P-8">
          <mxGeometry x="0.6756" y="-3" relative="1" as="geometry">
            <mxPoint x="3" y="9" as="offset" />
          </mxGeometry>
        </mxCell>
        <mxCell id="Fo1p0z003ygMmxx4qWx5-9" value="Есть бронь" style="rhombus;whiteSpace=wrap;html=1;fontSize=12;" parent="1" vertex="1">
          <mxGeometry x="400" y="80" width="120" height="80" as="geometry" />
        </mxCell>
        <mxCell id="o-FCv32g8scxOuC1XO9P-13" style="edgeStyle=orthogonalEdgeStyle;rounded=0;orthogonalLoop=1;jettySize=auto;html=1;" edge="1" parent="1" source="Fo1p0z003ygMmxx4qWx5-10" target="Fo1p0z003ygMmxx4qWx5-7">
          <mxGeometry relative="1" as="geometry" />
        </mxCell>
        <mxCell id="Fo1p0z003ygMmxx4qWx5-10" value="Брони" style="shape=cylinder3;whiteSpace=wrap;html=1;boundedLbl=1;backgroundOutline=1;size=5.799997965494811;fontSize=12;" parent="1" vertex="1">
          <mxGeometry x="400" y="200" width="120" height="50" as="geometry" />
        </mxCell>
        <mxCell id="o-FCv32g8scxOuC1XO9P-14" style="edgeStyle=orthogonalEdgeStyle;rounded=0;orthogonalLoop=1;jettySize=auto;html=1;" edge="1" parent="1" source="o-FCv32g8scxOuC1XO9P-10" target="Fo1p0z003ygMmxx4qWx5-8">
          <mxGeometry relative="1" as="geometry" />
        </mxCell>
        <mxCell id="o-FCv32g8scxOuC1XO9P-16" style="edgeStyle=orthogonalEdgeStyle;rounded=0;orthogonalLoop=1;jettySize=auto;html=1;" edge="1" parent="1" source="o-FCv32g8scxOuC1XO9P-10" target="o-FCv32g8scxOuC1XO9P-15">
          <mxGeometry relative="1" as="geometry" />
        </mxCell>
        <mxCell id="o-FCv32g8scxOuC1XO9P-10" value="Сбор данных требуемых для создания брони" style="shape=process;whiteSpace=wrap;html=1;backgroundOutline=1;fontSize=12;" vertex="1" parent="1">
          <mxGeometry x="240" y="280" width="120" height="60" as="geometry" />
        </mxCell>
        <mxCell id="o-FCv32g8scxOuC1XO9P-15" value="Информация по брони" style="shape=document;whiteSpace=wrap;html=1;boundedLbl=1;fontSize=12;" vertex="1" parent="1">
          <mxGeometry x="80" y="280" width="120" height="60" as="geometry" />
        </mxCell>
      </root>
    </mxGraphModel>
  </diagram>
</mxfile>
